<mxfile host="app.diagrams.net" modified="2024-05-14T19:59:28.136Z" agent="Mozilla/5.0 (Windows NT 10.0; Win64; x64) AppleWebKit/537.36 (KHTML, like Gecko) Chrome/124.0.0.0 Safari/537.36 Edg/124.0.0.0" etag="IoaOdKvw0x9cNbF7IPQL" version="24.4.0" type="device">
  <diagram name="PÃ¡gina-1" id="MDbFIKiPPLKn4BLez_JS">
    <mxGraphModel dx="824" dy="331" grid="1" gridSize="10" guides="1" tooltips="1" connect="1" arrows="1" fold="1" page="1" pageScale="1" pageWidth="827" pageHeight="1169" math="0" shadow="0">
      <root>
        <mxCell id="0" />
        <mxCell id="1" parent="0" />
        <mxCell id="Ew38yq7X-rR1EeehxZCt-1" style="edgeStyle=none;rounded=0;orthogonalLoop=1;jettySize=auto;html=1;strokeColor=default;align=center;verticalAlign=middle;fontFamily=Helvetica;fontSize=11;fontColor=default;labelBackgroundColor=default;endArrow=none;endFill=0;" edge="1" parent="1" source="Ew38yq7X-rR1EeehxZCt-2" target="Ew38yq7X-rR1EeehxZCt-7">
          <mxGeometry relative="1" as="geometry" />
        </mxCell>
        <mxCell id="Ew38yq7X-rR1EeehxZCt-2" value="tipo" style="ellipse;whiteSpace=wrap;html=1;align=center;" vertex="1" parent="1">
          <mxGeometry x="476" y="387" width="100" height="40" as="geometry" />
        </mxCell>
        <mxCell id="Ew38yq7X-rR1EeehxZCt-3" value="Attribute" style="ellipse;whiteSpace=wrap;html=1;align=center;fontStyle=4;" vertex="1" parent="1">
          <mxGeometry x="19" y="386" width="100" height="40" as="geometry" />
        </mxCell>
        <mxCell id="Ew38yq7X-rR1EeehxZCt-4" value="Attribute" style="ellipse;whiteSpace=wrap;html=1;align=center;dashed=1;" vertex="1" parent="1">
          <mxGeometry x="19" y="444" width="100" height="40" as="geometry" />
        </mxCell>
        <mxCell id="Ew38yq7X-rR1EeehxZCt-5" value="" style="rounded=0;orthogonalLoop=1;jettySize=auto;html=1;endArrow=none;endFill=0;" edge="1" parent="1" source="Ew38yq7X-rR1EeehxZCt-7" target="Ew38yq7X-rR1EeehxZCt-16">
          <mxGeometry relative="1" as="geometry" />
        </mxCell>
        <mxCell id="Ew38yq7X-rR1EeehxZCt-6" style="edgeStyle=none;rounded=0;orthogonalLoop=1;jettySize=auto;html=1;entryX=0.5;entryY=1;entryDx=0;entryDy=0;strokeColor=default;align=center;verticalAlign=middle;fontFamily=Helvetica;fontSize=11;fontColor=default;labelBackgroundColor=default;endArrow=none;endFill=0;" edge="1" parent="1" source="Ew38yq7X-rR1EeehxZCt-7" target="Ew38yq7X-rR1EeehxZCt-11">
          <mxGeometry relative="1" as="geometry" />
        </mxCell>
        <mxCell id="Ew38yq7X-rR1EeehxZCt-7" value="movimenta" style="shape=rhombus;perimeter=rhombusPerimeter;whiteSpace=wrap;html=1;align=center;" vertex="1" parent="1">
          <mxGeometry x="340" y="367" width="120" height="60" as="geometry" />
        </mxCell>
        <mxCell id="Ew38yq7X-rR1EeehxZCt-8" value="Entity" style="shape=ext;margin=3;double=1;whiteSpace=wrap;html=1;align=center;" vertex="1" parent="1">
          <mxGeometry x="19" y="206" width="100" height="40" as="geometry" />
        </mxCell>
        <mxCell id="Ew38yq7X-rR1EeehxZCt-9" value="Relationship" style="shape=rhombus;double=1;perimeter=rhombusPerimeter;whiteSpace=wrap;html=1;align=center;" vertex="1" parent="1">
          <mxGeometry x="11" y="51" width="120" height="60" as="geometry" />
        </mxCell>
        <mxCell id="Ew38yq7X-rR1EeehxZCt-10" value="" style="edgeStyle=none;rounded=0;orthogonalLoop=1;jettySize=auto;html=1;strokeColor=default;align=center;verticalAlign=middle;fontFamily=Helvetica;fontSize=11;fontColor=default;labelBackgroundColor=default;endArrow=none;endFill=0;" edge="1" parent="1" source="Ew38yq7X-rR1EeehxZCt-11" target="Ew38yq7X-rR1EeehxZCt-30">
          <mxGeometry relative="1" as="geometry" />
        </mxCell>
        <mxCell id="Ew38yq7X-rR1EeehxZCt-11" value="Material_Didatico" style="whiteSpace=wrap;html=1;align=center;" vertex="1" parent="1">
          <mxGeometry x="352" y="273" width="100" height="40" as="geometry" />
        </mxCell>
        <mxCell id="Ew38yq7X-rR1EeehxZCt-12" style="edgeStyle=none;rounded=0;orthogonalLoop=1;jettySize=auto;html=1;strokeColor=default;align=center;verticalAlign=middle;fontFamily=Helvetica;fontSize=11;fontColor=default;labelBackgroundColor=default;endArrow=none;endFill=0;" edge="1" parent="1" source="Ew38yq7X-rR1EeehxZCt-15" target="Ew38yq7X-rR1EeehxZCt-33">
          <mxGeometry relative="1" as="geometry" />
        </mxCell>
        <mxCell id="Ew38yq7X-rR1EeehxZCt-13" style="edgeStyle=none;rounded=0;orthogonalLoop=1;jettySize=auto;html=1;strokeColor=default;align=center;verticalAlign=middle;fontFamily=Helvetica;fontSize=11;fontColor=default;labelBackgroundColor=default;endArrow=none;endFill=0;" edge="1" parent="1" source="Ew38yq7X-rR1EeehxZCt-15" target="Ew38yq7X-rR1EeehxZCt-48">
          <mxGeometry relative="1" as="geometry">
            <Array as="points" />
          </mxGeometry>
        </mxCell>
        <mxCell id="Ew38yq7X-rR1EeehxZCt-14" style="edgeStyle=none;rounded=0;orthogonalLoop=1;jettySize=auto;html=1;strokeColor=default;align=center;verticalAlign=middle;fontFamily=Helvetica;fontSize=11;fontColor=default;labelBackgroundColor=default;endArrow=none;endFill=0;" edge="1" parent="1" source="Ew38yq7X-rR1EeehxZCt-15" target="Ew38yq7X-rR1EeehxZCt-46">
          <mxGeometry relative="1" as="geometry" />
        </mxCell>
        <mxCell id="Ew38yq7X-rR1EeehxZCt-15" value="Observacao" style="whiteSpace=wrap;html=1;align=center;" vertex="1" parent="1">
          <mxGeometry x="561" y="532" width="100" height="40" as="geometry" />
        </mxCell>
        <mxCell id="Ew38yq7X-rR1EeehxZCt-16" value="Armazenamento" style="whiteSpace=wrap;html=1;align=center;" vertex="1" parent="1">
          <mxGeometry x="347" y="472" width="100" height="40" as="geometry" />
        </mxCell>
        <mxCell id="Ew38yq7X-rR1EeehxZCt-17" value="Reprografia" style="whiteSpace=wrap;html=1;align=center;" vertex="1" parent="1">
          <mxGeometry x="976" y="646" width="100" height="40" as="geometry" />
        </mxCell>
        <mxCell id="Ew38yq7X-rR1EeehxZCt-18" value="Remessa_&lt;br&gt;&lt;div&gt;Conserto&lt;/div&gt;" style="whiteSpace=wrap;html=1;align=center;" vertex="1" parent="1">
          <mxGeometry x="581" y="118" width="100" height="40" as="geometry" />
        </mxCell>
        <mxCell id="Ew38yq7X-rR1EeehxZCt-19" value="Turma" style="whiteSpace=wrap;html=1;align=center;" vertex="1" parent="1">
          <mxGeometry x="967" y="195" width="100" height="40" as="geometry" />
        </mxCell>
        <mxCell id="Ew38yq7X-rR1EeehxZCt-20" style="edgeStyle=none;rounded=0;orthogonalLoop=1;jettySize=auto;html=1;strokeColor=default;align=center;verticalAlign=middle;fontFamily=Helvetica;fontSize=11;fontColor=default;labelBackgroundColor=default;endArrow=none;endFill=0;" edge="1" parent="1" source="Ew38yq7X-rR1EeehxZCt-22" target="Ew38yq7X-rR1EeehxZCt-73">
          <mxGeometry relative="1" as="geometry" />
        </mxCell>
        <mxCell id="Ew38yq7X-rR1EeehxZCt-21" style="edgeStyle=none;rounded=0;orthogonalLoop=1;jettySize=auto;html=1;strokeColor=default;align=center;verticalAlign=middle;fontFamily=Helvetica;fontSize=11;fontColor=default;labelBackgroundColor=default;endArrow=none;endFill=0;" edge="1" parent="1" source="Ew38yq7X-rR1EeehxZCt-22" target="Ew38yq7X-rR1EeehxZCt-84">
          <mxGeometry relative="1" as="geometry" />
        </mxCell>
        <mxCell id="Ew38yq7X-rR1EeehxZCt-22" value="Professor" style="whiteSpace=wrap;html=1;align=center;" vertex="1" parent="1">
          <mxGeometry x="971" y="367" width="100" height="40" as="geometry" />
        </mxCell>
        <mxCell id="Ew38yq7X-rR1EeehxZCt-23" value="Relationship" style="shape=rhombus;perimeter=rhombusPerimeter;whiteSpace=wrap;html=1;align=center;" vertex="1" parent="1">
          <mxGeometry x="5" y="126" width="120" height="60" as="geometry" />
        </mxCell>
        <mxCell id="Ew38yq7X-rR1EeehxZCt-24" value="N" style="text;html=1;align=center;verticalAlign=middle;resizable=0;points=[];autosize=1;strokeColor=none;fillColor=none;fontFamily=Helvetica;fontSize=11;fontColor=default;labelBackgroundColor=default;" vertex="1" parent="1">
          <mxGeometry x="376" y="334" width="26" height="25" as="geometry" />
        </mxCell>
        <mxCell id="Ew38yq7X-rR1EeehxZCt-25" value="N" style="text;html=1;align=center;verticalAlign=middle;resizable=0;points=[];autosize=1;strokeColor=none;fillColor=none;fontFamily=Helvetica;fontSize=11;fontColor=default;labelBackgroundColor=default;" vertex="1" parent="1">
          <mxGeometry x="377" y="417" width="26" height="25" as="geometry" />
        </mxCell>
        <mxCell id="Ew38yq7X-rR1EeehxZCt-26" style="edgeStyle=none;rounded=0;orthogonalLoop=1;jettySize=auto;html=1;exitX=0.5;exitY=1;exitDx=0;exitDy=0;entryX=0;entryY=0;entryDx=0;entryDy=0;strokeColor=default;align=center;verticalAlign=middle;fontFamily=Helvetica;fontSize=11;fontColor=default;labelBackgroundColor=default;endArrow=none;endFill=0;" edge="1" parent="1" source="Ew38yq7X-rR1EeehxZCt-27" target="Ew38yq7X-rR1EeehxZCt-11">
          <mxGeometry relative="1" as="geometry" />
        </mxCell>
        <mxCell id="Ew38yq7X-rR1EeehxZCt-27" value="ID" style="ellipse;whiteSpace=wrap;html=1;align=center;fontStyle=4;" vertex="1" parent="1">
          <mxGeometry x="325" y="231" width="37" height="25" as="geometry" />
        </mxCell>
        <mxCell id="Ew38yq7X-rR1EeehxZCt-28" style="edgeStyle=none;rounded=0;orthogonalLoop=1;jettySize=auto;html=1;entryX=1;entryY=0;entryDx=0;entryDy=0;strokeColor=default;align=center;verticalAlign=middle;fontFamily=Helvetica;fontSize=11;fontColor=default;labelBackgroundColor=default;endArrow=none;endFill=0;" edge="1" parent="1" source="Ew38yq7X-rR1EeehxZCt-29" target="Ew38yq7X-rR1EeehxZCt-11">
          <mxGeometry relative="1" as="geometry" />
        </mxCell>
        <mxCell id="Ew38yq7X-rR1EeehxZCt-29" value="data_&lt;div&gt;publicacao&lt;/div&gt;" style="ellipse;whiteSpace=wrap;html=1;align=center;" vertex="1" parent="1">
          <mxGeometry x="458" y="231" width="85" height="42" as="geometry" />
        </mxCell>
        <mxCell id="Ew38yq7X-rR1EeehxZCt-30" value="titulo" style="ellipse;whiteSpace=wrap;html=1;align=center;" vertex="1" parent="1">
          <mxGeometry x="343" y="199" width="54" height="32" as="geometry" />
        </mxCell>
        <mxCell id="Ew38yq7X-rR1EeehxZCt-31" style="edgeStyle=none;rounded=0;orthogonalLoop=1;jettySize=auto;html=1;entryX=0;entryY=0;entryDx=0;entryDy=0;strokeColor=default;align=center;verticalAlign=middle;fontFamily=Helvetica;fontSize=11;fontColor=default;labelBackgroundColor=default;endArrow=none;endFill=0;" edge="1" parent="1" source="Ew38yq7X-rR1EeehxZCt-32" target="Ew38yq7X-rR1EeehxZCt-16">
          <mxGeometry relative="1" as="geometry" />
        </mxCell>
        <mxCell id="Ew38yq7X-rR1EeehxZCt-32" value="ID" style="ellipse;whiteSpace=wrap;html=1;align=center;fontStyle=4;" vertex="1" parent="1">
          <mxGeometry x="273" y="413" width="50" height="23" as="geometry" />
        </mxCell>
        <mxCell id="Ew38yq7X-rR1EeehxZCt-33" value="tem" style="shape=rhombus;perimeter=rhombusPerimeter;whiteSpace=wrap;html=1;align=center;" vertex="1" parent="1">
          <mxGeometry x="490" y="347" width="120" height="60" as="geometry" />
        </mxCell>
        <mxCell id="Ew38yq7X-rR1EeehxZCt-34" style="edgeStyle=none;rounded=0;orthogonalLoop=1;jettySize=auto;html=1;entryX=0.325;entryY=0.2;entryDx=0;entryDy=0;entryPerimeter=0;strokeColor=default;align=center;verticalAlign=middle;fontFamily=Helvetica;fontSize=11;fontColor=default;labelBackgroundColor=default;endArrow=none;endFill=0;" edge="1" parent="1" source="Ew38yq7X-rR1EeehxZCt-11" target="Ew38yq7X-rR1EeehxZCt-33">
          <mxGeometry relative="1" as="geometry" />
        </mxCell>
        <mxCell id="Ew38yq7X-rR1EeehxZCt-35" value="1" style="text;html=1;align=center;verticalAlign=middle;resizable=0;points=[];autosize=1;strokeColor=none;fillColor=none;fontFamily=Helvetica;fontSize=11;fontColor=default;labelBackgroundColor=default;" vertex="1" parent="1">
          <mxGeometry x="561" y="395" width="24" height="25" as="geometry" />
        </mxCell>
        <mxCell id="Ew38yq7X-rR1EeehxZCt-36" value="1" style="text;html=1;align=center;verticalAlign=middle;resizable=0;points=[];autosize=1;strokeColor=none;fillColor=none;fontFamily=Helvetica;fontSize=11;fontColor=default;labelBackgroundColor=default;" vertex="1" parent="1">
          <mxGeometry x="495" y="347" width="24" height="25" as="geometry" />
        </mxCell>
        <mxCell id="Ew38yq7X-rR1EeehxZCt-37" style="edgeStyle=none;rounded=0;orthogonalLoop=1;jettySize=auto;html=1;entryX=0;entryY=0.25;entryDx=0;entryDy=0;strokeColor=default;align=center;verticalAlign=middle;fontFamily=Helvetica;fontSize=11;fontColor=default;labelBackgroundColor=default;endArrow=none;endFill=0;" edge="1" parent="1" source="Ew38yq7X-rR1EeehxZCt-38" target="Ew38yq7X-rR1EeehxZCt-16">
          <mxGeometry relative="1" as="geometry" />
        </mxCell>
        <mxCell id="Ew38yq7X-rR1EeehxZCt-38" value="descrÃ§ao" style="ellipse;whiteSpace=wrap;html=1;align=center;" vertex="1" parent="1">
          <mxGeometry x="202" y="420" width="71" height="40" as="geometry" />
        </mxCell>
        <mxCell id="Ew38yq7X-rR1EeehxZCt-39" style="edgeStyle=none;rounded=0;orthogonalLoop=1;jettySize=auto;html=1;strokeColor=default;align=center;verticalAlign=middle;fontFamily=Helvetica;fontSize=11;fontColor=default;labelBackgroundColor=default;endArrow=none;endFill=0;" edge="1" parent="1" source="Ew38yq7X-rR1EeehxZCt-40" target="Ew38yq7X-rR1EeehxZCt-16">
          <mxGeometry relative="1" as="geometry" />
        </mxCell>
        <mxCell id="Ew38yq7X-rR1EeehxZCt-40" value="subdivisao" style="ellipse;whiteSpace=wrap;html=1;align=center;" vertex="1" parent="1">
          <mxGeometry x="270" y="539" width="83" height="27" as="geometry" />
        </mxCell>
        <mxCell id="Ew38yq7X-rR1EeehxZCt-41" style="edgeStyle=none;rounded=0;orthogonalLoop=1;jettySize=auto;html=1;entryX=0;entryY=0.25;entryDx=0;entryDy=0;strokeColor=default;align=center;verticalAlign=middle;fontFamily=Helvetica;fontSize=11;fontColor=default;labelBackgroundColor=default;endArrow=none;endFill=0;" edge="1" parent="1" source="Ew38yq7X-rR1EeehxZCt-42" target="Ew38yq7X-rR1EeehxZCt-11">
          <mxGeometry relative="1" as="geometry" />
        </mxCell>
        <mxCell id="Ew38yq7X-rR1EeehxZCt-42" value="categoria" style="ellipse;whiteSpace=wrap;html=1;align=center;" vertex="1" parent="1">
          <mxGeometry x="241" y="252" width="76" height="31" as="geometry" />
        </mxCell>
        <mxCell id="Ew38yq7X-rR1EeehxZCt-129" style="rounded=0;orthogonalLoop=1;jettySize=auto;html=1;entryX=0;entryY=0.75;entryDx=0;entryDy=0;endArrow=none;endFill=0;" edge="1" parent="1" source="Ew38yq7X-rR1EeehxZCt-44" target="Ew38yq7X-rR1EeehxZCt-16">
          <mxGeometry relative="1" as="geometry" />
        </mxCell>
        <mxCell id="Ew38yq7X-rR1EeehxZCt-44" value="numero_&lt;div&gt;nota&lt;/div&gt;" style="ellipse;whiteSpace=wrap;html=1;align=center;" vertex="1" parent="1">
          <mxGeometry x="210" y="503" width="79" height="35" as="geometry" />
        </mxCell>
        <mxCell id="Ew38yq7X-rR1EeehxZCt-45" style="edgeStyle=none;rounded=0;orthogonalLoop=1;jettySize=auto;html=1;entryX=0;entryY=0;entryDx=0;entryDy=0;strokeColor=default;align=center;verticalAlign=middle;fontFamily=Helvetica;fontSize=11;fontColor=default;labelBackgroundColor=default;endArrow=none;endFill=0;" edge="1" parent="1" source="Ew38yq7X-rR1EeehxZCt-46" target="Ew38yq7X-rR1EeehxZCt-17">
          <mxGeometry relative="1" as="geometry" />
        </mxCell>
        <mxCell id="Ew38yq7X-rR1EeehxZCt-46" value="tem" style="shape=rhombus;perimeter=rhombusPerimeter;whiteSpace=wrap;html=1;align=center;" vertex="1" parent="1">
          <mxGeometry x="812" y="559" width="120" height="60" as="geometry" />
        </mxCell>
        <mxCell id="Ew38yq7X-rR1EeehxZCt-47" style="edgeStyle=none;rounded=0;orthogonalLoop=1;jettySize=auto;html=1;entryX=0;entryY=1;entryDx=0;entryDy=0;strokeColor=default;align=center;verticalAlign=middle;fontFamily=Helvetica;fontSize=11;fontColor=default;labelBackgroundColor=default;endArrow=none;endFill=0;" edge="1" parent="1" source="Ew38yq7X-rR1EeehxZCt-48" target="Ew38yq7X-rR1EeehxZCt-22">
          <mxGeometry relative="1" as="geometry" />
        </mxCell>
        <mxCell id="Ew38yq7X-rR1EeehxZCt-48" value="faz" style="shape=rhombus;perimeter=rhombusPerimeter;whiteSpace=wrap;html=1;align=center;" vertex="1" parent="1">
          <mxGeometry x="804" y="415" width="120" height="60" as="geometry" />
        </mxCell>
        <mxCell id="Ew38yq7X-rR1EeehxZCt-49" style="edgeStyle=none;rounded=0;orthogonalLoop=1;jettySize=auto;html=1;strokeColor=default;align=center;verticalAlign=middle;fontFamily=Helvetica;fontSize=11;fontColor=default;labelBackgroundColor=default;endArrow=none;endFill=0;" edge="1" parent="1" source="Ew38yq7X-rR1EeehxZCt-50" target="Ew38yq7X-rR1EeehxZCt-48">
          <mxGeometry relative="1" as="geometry" />
        </mxCell>
        <mxCell id="Ew38yq7X-rR1EeehxZCt-50" value="data_&lt;div&gt;observacao&lt;/div&gt;" style="ellipse;whiteSpace=wrap;html=1;align=center;" vertex="1" parent="1">
          <mxGeometry x="899" y="468" width="85" height="42" as="geometry" />
        </mxCell>
        <mxCell id="Ew38yq7X-rR1EeehxZCt-51" value="1" style="text;html=1;align=center;verticalAlign=middle;resizable=0;points=[];autosize=1;strokeColor=none;fillColor=none;fontFamily=Helvetica;fontSize=11;fontColor=default;labelBackgroundColor=default;" vertex="1" parent="1">
          <mxGeometry x="891" y="405" width="24" height="25" as="geometry" />
        </mxCell>
        <mxCell id="Ew38yq7X-rR1EeehxZCt-52" value="N" style="text;html=1;align=center;verticalAlign=middle;resizable=0;points=[];autosize=1;strokeColor=none;fillColor=none;fontFamily=Helvetica;fontSize=11;fontColor=default;labelBackgroundColor=default;" vertex="1" parent="1">
          <mxGeometry x="786" y="442" width="26" height="25" as="geometry" />
        </mxCell>
        <mxCell id="Ew38yq7X-rR1EeehxZCt-53" style="edgeStyle=none;rounded=0;orthogonalLoop=1;jettySize=auto;html=1;entryX=1;entryY=0.5;entryDx=0;entryDy=0;strokeColor=default;align=center;verticalAlign=middle;fontFamily=Helvetica;fontSize=11;fontColor=default;labelBackgroundColor=default;endArrow=none;endFill=0;" edge="1" parent="1" source="Ew38yq7X-rR1EeehxZCt-55" target="Ew38yq7X-rR1EeehxZCt-11">
          <mxGeometry relative="1" as="geometry" />
        </mxCell>
        <mxCell id="Ew38yq7X-rR1EeehxZCt-54" style="edgeStyle=none;rounded=0;orthogonalLoop=1;jettySize=auto;html=1;entryX=0;entryY=0.5;entryDx=0;entryDy=0;strokeColor=default;align=center;verticalAlign=middle;fontFamily=Helvetica;fontSize=11;fontColor=default;labelBackgroundColor=default;endArrow=none;endFill=0;" edge="1" parent="1" source="Ew38yq7X-rR1EeehxZCt-55" target="Ew38yq7X-rR1EeehxZCt-19">
          <mxGeometry relative="1" as="geometry" />
        </mxCell>
        <mxCell id="Ew38yq7X-rR1EeehxZCt-55" value="tem" style="shape=rhombus;perimeter=rhombusPerimeter;whiteSpace=wrap;html=1;align=center;" vertex="1" parent="1">
          <mxGeometry x="660" y="231" width="120" height="60" as="geometry" />
        </mxCell>
        <mxCell id="Ew38yq7X-rR1EeehxZCt-56" value="N" style="text;html=1;align=center;verticalAlign=middle;resizable=0;points=[];autosize=1;strokeColor=none;fillColor=none;fontFamily=Helvetica;fontSize=11;fontColor=default;labelBackgroundColor=default;" vertex="1" parent="1">
          <mxGeometry x="635" y="247" width="26" height="25" as="geometry" />
        </mxCell>
        <mxCell id="Ew38yq7X-rR1EeehxZCt-57" value="N" style="text;html=1;align=center;verticalAlign=middle;resizable=0;points=[];autosize=1;strokeColor=none;fillColor=none;fontFamily=Helvetica;fontSize=11;fontColor=default;labelBackgroundColor=default;" vertex="1" parent="1">
          <mxGeometry x="761" y="228" width="26" height="25" as="geometry" />
        </mxCell>
        <mxCell id="Ew38yq7X-rR1EeehxZCt-58" style="edgeStyle=none;rounded=0;orthogonalLoop=1;jettySize=auto;html=1;entryX=0.5;entryY=1;entryDx=0;entryDy=0;strokeColor=default;align=center;verticalAlign=middle;fontFamily=Helvetica;fontSize=11;fontColor=default;labelBackgroundColor=default;endArrow=none;endFill=0;" edge="1" parent="1" source="Ew38yq7X-rR1EeehxZCt-60" target="Ew38yq7X-rR1EeehxZCt-19">
          <mxGeometry relative="1" as="geometry" />
        </mxCell>
        <mxCell id="Ew38yq7X-rR1EeehxZCt-59" style="edgeStyle=none;rounded=0;orthogonalLoop=1;jettySize=auto;html=1;strokeColor=default;align=center;verticalAlign=middle;fontFamily=Helvetica;fontSize=11;fontColor=default;labelBackgroundColor=default;endArrow=none;endFill=0;" edge="1" parent="1" source="Ew38yq7X-rR1EeehxZCt-60">
          <mxGeometry relative="1" as="geometry">
            <mxPoint x="1019" y="365" as="targetPoint" />
          </mxGeometry>
        </mxCell>
        <mxCell id="Ew38yq7X-rR1EeehxZCt-60" value="tem" style="shape=rhombus;perimeter=rhombusPerimeter;whiteSpace=wrap;html=1;align=center;" vertex="1" parent="1">
          <mxGeometry x="959" y="273" width="120" height="61" as="geometry" />
        </mxCell>
        <mxCell id="Ew38yq7X-rR1EeehxZCt-61" value="1" style="text;html=1;align=center;verticalAlign=middle;resizable=0;points=[];autosize=1;strokeColor=none;fillColor=none;fontFamily=Helvetica;fontSize=11;fontColor=default;labelBackgroundColor=default;" vertex="1" parent="1">
          <mxGeometry x="999" y="330" width="24" height="25" as="geometry" />
        </mxCell>
        <mxCell id="Ew38yq7X-rR1EeehxZCt-62" value="N" style="text;html=1;align=center;verticalAlign=middle;resizable=0;points=[];autosize=1;strokeColor=none;fillColor=none;fontFamily=Helvetica;fontSize=11;fontColor=default;labelBackgroundColor=default;" vertex="1" parent="1">
          <mxGeometry x="992" y="253" width="26" height="25" as="geometry" />
        </mxCell>
        <mxCell id="Ew38yq7X-rR1EeehxZCt-63" style="edgeStyle=none;rounded=0;orthogonalLoop=1;jettySize=auto;html=1;entryX=0;entryY=0;entryDx=0;entryDy=0;strokeColor=default;align=center;verticalAlign=middle;fontFamily=Helvetica;fontSize=11;fontColor=default;labelBackgroundColor=default;endArrow=none;endFill=0;" edge="1" parent="1" source="Ew38yq7X-rR1EeehxZCt-64" target="Ew38yq7X-rR1EeehxZCt-19">
          <mxGeometry relative="1" as="geometry" />
        </mxCell>
        <mxCell id="Ew38yq7X-rR1EeehxZCt-64" value="ID" style="ellipse;whiteSpace=wrap;html=1;align=center;fontStyle=4;fontFamily=Helvetica;fontSize=11;fontColor=default;labelBackgroundColor=default;" vertex="1" parent="1">
          <mxGeometry x="917" y="182" width="42" height="24" as="geometry" />
        </mxCell>
        <mxCell id="Ew38yq7X-rR1EeehxZCt-65" style="edgeStyle=none;rounded=0;orthogonalLoop=1;jettySize=auto;html=1;entryX=0.25;entryY=0;entryDx=0;entryDy=0;strokeColor=default;align=center;verticalAlign=middle;fontFamily=Helvetica;fontSize=11;fontColor=default;labelBackgroundColor=default;endArrow=none;endFill=0;" edge="1" parent="1" source="Ew38yq7X-rR1EeehxZCt-66" target="Ew38yq7X-rR1EeehxZCt-19">
          <mxGeometry relative="1" as="geometry" />
        </mxCell>
        <mxCell id="Ew38yq7X-rR1EeehxZCt-66" value="nome" style="ellipse;whiteSpace=wrap;html=1;align=center;fontFamily=Helvetica;fontSize=11;fontColor=default;labelBackgroundColor=default;" vertex="1" parent="1">
          <mxGeometry x="938" y="153" width="58" height="23" as="geometry" />
        </mxCell>
        <mxCell id="Ew38yq7X-rR1EeehxZCt-67" style="edgeStyle=none;rounded=0;orthogonalLoop=1;jettySize=auto;html=1;entryX=0.5;entryY=0;entryDx=0;entryDy=0;strokeColor=default;align=center;verticalAlign=middle;fontFamily=Helvetica;fontSize=11;fontColor=default;labelBackgroundColor=default;endArrow=none;endFill=0;" edge="1" parent="1" source="Ew38yq7X-rR1EeehxZCt-68" target="Ew38yq7X-rR1EeehxZCt-19">
          <mxGeometry relative="1" as="geometry" />
        </mxCell>
        <mxCell id="Ew38yq7X-rR1EeehxZCt-68" value="categoria" style="ellipse;whiteSpace=wrap;html=1;align=center;fontFamily=Helvetica;fontSize=11;fontColor=default;labelBackgroundColor=default;" vertex="1" parent="1">
          <mxGeometry x="981.5" y="126" width="71" height="29" as="geometry" />
        </mxCell>
        <mxCell id="Ew38yq7X-rR1EeehxZCt-69" style="edgeStyle=none;rounded=0;orthogonalLoop=1;jettySize=auto;html=1;entryX=1;entryY=0;entryDx=0;entryDy=0;strokeColor=default;align=center;verticalAlign=middle;fontFamily=Helvetica;fontSize=11;fontColor=default;labelBackgroundColor=default;endArrow=none;endFill=0;" edge="1" parent="1" source="Ew38yq7X-rR1EeehxZCt-70" target="Ew38yq7X-rR1EeehxZCt-22">
          <mxGeometry relative="1" as="geometry" />
        </mxCell>
        <mxCell id="Ew38yq7X-rR1EeehxZCt-70" value="ID" style="ellipse;whiteSpace=wrap;html=1;align=center;fontStyle=4;fontFamily=Helvetica;fontSize=11;fontColor=default;labelBackgroundColor=default;" vertex="1" parent="1">
          <mxGeometry x="1074" y="341" width="42" height="24" as="geometry" />
        </mxCell>
        <mxCell id="Ew38yq7X-rR1EeehxZCt-71" style="edgeStyle=none;rounded=0;orthogonalLoop=1;jettySize=auto;html=1;entryX=1;entryY=0.75;entryDx=0;entryDy=0;strokeColor=default;align=center;verticalAlign=middle;fontFamily=Helvetica;fontSize=11;fontColor=default;labelBackgroundColor=default;endArrow=none;endFill=0;" edge="1" parent="1" source="Ew38yq7X-rR1EeehxZCt-72" target="Ew38yq7X-rR1EeehxZCt-22">
          <mxGeometry relative="1" as="geometry" />
        </mxCell>
        <mxCell id="Ew38yq7X-rR1EeehxZCt-72" value="nome" style="ellipse;whiteSpace=wrap;html=1;align=center;fontFamily=Helvetica;fontSize=11;fontColor=default;labelBackgroundColor=default;" vertex="1" parent="1">
          <mxGeometry x="1084" y="384" width="58" height="23" as="geometry" />
        </mxCell>
        <mxCell id="Ew38yq7X-rR1EeehxZCt-73" value="solicita" style="shape=rhombus;perimeter=rhombusPerimeter;whiteSpace=wrap;html=1;align=center;" vertex="1" parent="1">
          <mxGeometry x="961" y="502" width="120" height="59" as="geometry" />
        </mxCell>
        <mxCell id="Ew38yq7X-rR1EeehxZCt-74" style="edgeStyle=none;rounded=0;orthogonalLoop=1;jettySize=auto;html=1;entryX=0.44;entryY=-0.025;entryDx=0;entryDy=0;entryPerimeter=0;strokeColor=default;align=center;verticalAlign=middle;fontFamily=Helvetica;fontSize=11;fontColor=default;labelBackgroundColor=default;endArrow=none;endFill=0;" edge="1" parent="1" source="Ew38yq7X-rR1EeehxZCt-73" target="Ew38yq7X-rR1EeehxZCt-17">
          <mxGeometry relative="1" as="geometry" />
        </mxCell>
        <mxCell id="Ew38yq7X-rR1EeehxZCt-75" value="1" style="text;html=1;align=center;verticalAlign=middle;resizable=0;points=[];autosize=1;strokeColor=none;fillColor=none;fontFamily=Helvetica;fontSize=11;fontColor=default;labelBackgroundColor=default;" vertex="1" parent="1">
          <mxGeometry x="999" y="478" width="24" height="25" as="geometry" />
        </mxCell>
        <mxCell id="Ew38yq7X-rR1EeehxZCt-76" value="N" style="text;html=1;align=center;verticalAlign=middle;resizable=0;points=[];autosize=1;strokeColor=none;fillColor=none;fontFamily=Helvetica;fontSize=11;fontColor=default;labelBackgroundColor=default;" vertex="1" parent="1">
          <mxGeometry x="996" y="556" width="26" height="25" as="geometry" />
        </mxCell>
        <mxCell id="Ew38yq7X-rR1EeehxZCt-77" value="1" style="text;html=1;align=center;verticalAlign=middle;resizable=0;points=[];autosize=1;strokeColor=none;fillColor=none;fontFamily=Helvetica;fontSize=11;fontColor=default;labelBackgroundColor=default;" vertex="1" parent="1">
          <mxGeometry x="811" y="558" width="24" height="25" as="geometry" />
        </mxCell>
        <mxCell id="Ew38yq7X-rR1EeehxZCt-78" value="N" style="text;html=1;align=center;verticalAlign=middle;resizable=0;points=[];autosize=1;strokeColor=none;fillColor=none;fontFamily=Helvetica;fontSize=11;fontColor=default;labelBackgroundColor=default;" vertex="1" parent="1">
          <mxGeometry x="917" y="596" width="26" height="25" as="geometry" />
        </mxCell>
        <mxCell id="Ew38yq7X-rR1EeehxZCt-79" style="edgeStyle=none;rounded=0;orthogonalLoop=1;jettySize=auto;html=1;entryX=0;entryY=0;entryDx=0;entryDy=0;strokeColor=default;align=center;verticalAlign=middle;fontFamily=Helvetica;fontSize=11;fontColor=default;labelBackgroundColor=default;endArrow=none;endFill=0;" edge="1" parent="1" source="Ew38yq7X-rR1EeehxZCt-80" target="Ew38yq7X-rR1EeehxZCt-15">
          <mxGeometry relative="1" as="geometry" />
        </mxCell>
        <mxCell id="Ew38yq7X-rR1EeehxZCt-80" value="ID" style="ellipse;whiteSpace=wrap;html=1;align=center;fontStyle=4;" vertex="1" parent="1">
          <mxGeometry x="516" y="498" width="50" height="27.5" as="geometry" />
        </mxCell>
        <mxCell id="Ew38yq7X-rR1EeehxZCt-81" style="edgeStyle=none;rounded=0;orthogonalLoop=1;jettySize=auto;html=1;strokeColor=default;align=center;verticalAlign=middle;fontFamily=Helvetica;fontSize=11;fontColor=default;labelBackgroundColor=default;endArrow=none;endFill=0;" edge="1" parent="1" source="Ew38yq7X-rR1EeehxZCt-82">
          <mxGeometry relative="1" as="geometry">
            <mxPoint x="560" y="559.5" as="targetPoint" />
          </mxGeometry>
        </mxCell>
        <mxCell id="Ew38yq7X-rR1EeehxZCt-82" value="descricao" style="ellipse;whiteSpace=wrap;html=1;align=center;" vertex="1" parent="1">
          <mxGeometry x="476" y="544" width="73" height="31" as="geometry" />
        </mxCell>
        <mxCell id="Ew38yq7X-rR1EeehxZCt-83" style="edgeStyle=none;rounded=0;orthogonalLoop=1;jettySize=auto;html=1;strokeColor=default;align=center;verticalAlign=middle;fontFamily=Helvetica;fontSize=11;fontColor=default;labelBackgroundColor=default;endArrow=none;endFill=0;" edge="1" parent="1" source="Ew38yq7X-rR1EeehxZCt-84">
          <mxGeometry relative="1" as="geometry">
            <mxPoint x="685" y="141" as="targetPoint" />
          </mxGeometry>
        </mxCell>
        <mxCell id="Ew38yq7X-rR1EeehxZCt-84" value="solicita" style="shape=rhombus;perimeter=rhombusPerimeter;whiteSpace=wrap;html=1;align=center;" vertex="1" parent="1">
          <mxGeometry x="743" y="111" width="120" height="60" as="geometry" />
        </mxCell>
        <mxCell id="Ew38yq7X-rR1EeehxZCt-85" value="" style="edgeStyle=none;rounded=0;orthogonalLoop=1;jettySize=auto;html=1;strokeColor=default;align=center;verticalAlign=middle;fontFamily=Helvetica;fontSize=11;fontColor=default;labelBackgroundColor=default;endArrow=none;endFill=0;" edge="1" parent="1" source="Ew38yq7X-rR1EeehxZCt-86" target="Ew38yq7X-rR1EeehxZCt-18">
          <mxGeometry relative="1" as="geometry" />
        </mxCell>
        <mxCell id="Ew38yq7X-rR1EeehxZCt-86" value="tem" style="shape=rhombus;perimeter=rhombusPerimeter;whiteSpace=wrap;html=1;align=center;" vertex="1" parent="1">
          <mxGeometry x="414" y="110.5" width="120" height="60" as="geometry" />
        </mxCell>
        <mxCell id="Ew38yq7X-rR1EeehxZCt-87" value="1" style="text;html=1;align=center;verticalAlign=middle;resizable=0;points=[];autosize=1;strokeColor=none;fillColor=none;fontFamily=Helvetica;fontSize=11;fontColor=default;labelBackgroundColor=default;" vertex="1" parent="1">
          <mxGeometry x="810" y="160" width="24" height="25" as="geometry" />
        </mxCell>
        <mxCell id="Ew38yq7X-rR1EeehxZCt-88" value="N" style="text;html=1;align=center;verticalAlign=middle;resizable=0;points=[];autosize=1;strokeColor=none;fillColor=none;fontFamily=Helvetica;fontSize=11;fontColor=default;labelBackgroundColor=default;" vertex="1" parent="1">
          <mxGeometry x="731" y="120" width="26" height="25" as="geometry" />
        </mxCell>
        <mxCell id="Ew38yq7X-rR1EeehxZCt-89" style="edgeStyle=none;rounded=0;orthogonalLoop=1;jettySize=auto;html=1;entryX=0.93;entryY=0.025;entryDx=0;entryDy=0;entryPerimeter=0;strokeColor=default;align=center;verticalAlign=middle;fontFamily=Helvetica;fontSize=11;fontColor=default;labelBackgroundColor=default;endArrow=none;endFill=0;" edge="1" parent="1" source="Ew38yq7X-rR1EeehxZCt-86" target="Ew38yq7X-rR1EeehxZCt-11">
          <mxGeometry relative="1" as="geometry" />
        </mxCell>
        <mxCell id="Ew38yq7X-rR1EeehxZCt-90" value="1" style="text;html=1;align=center;verticalAlign=middle;resizable=0;points=[];autosize=1;strokeColor=none;fillColor=none;fontFamily=Helvetica;fontSize=11;fontColor=default;labelBackgroundColor=default;" vertex="1" parent="1">
          <mxGeometry x="519" y="113" width="24" height="25" as="geometry" />
        </mxCell>
        <mxCell id="Ew38yq7X-rR1EeehxZCt-91" value="N" style="text;html=1;align=center;verticalAlign=middle;resizable=0;points=[];autosize=1;strokeColor=none;fillColor=none;fontFamily=Helvetica;fontSize=11;fontColor=default;labelBackgroundColor=default;" vertex="1" parent="1">
          <mxGeometry x="444" y="162" width="26" height="25" as="geometry" />
        </mxCell>
        <mxCell id="Ew38yq7X-rR1EeehxZCt-92" value="" style="edgeStyle=none;rounded=0;orthogonalLoop=1;jettySize=auto;html=1;strokeColor=default;align=center;verticalAlign=middle;fontFamily=Helvetica;fontSize=11;fontColor=default;labelBackgroundColor=default;endArrow=none;endFill=0;" edge="1" parent="1" source="Ew38yq7X-rR1EeehxZCt-93" target="Ew38yq7X-rR1EeehxZCt-18">
          <mxGeometry relative="1" as="geometry" />
        </mxCell>
        <mxCell id="Ew38yq7X-rR1EeehxZCt-93" value="ID" style="ellipse;whiteSpace=wrap;html=1;align=center;fontStyle=4;" vertex="1" parent="1">
          <mxGeometry x="610" y="178" width="32" height="21" as="geometry" />
        </mxCell>
        <mxCell id="Ew38yq7X-rR1EeehxZCt-94" value="" style="edgeStyle=none;rounded=0;orthogonalLoop=1;jettySize=auto;html=1;strokeColor=default;align=center;verticalAlign=middle;fontFamily=Helvetica;fontSize=11;fontColor=default;labelBackgroundColor=default;endArrow=none;endFill=0;" edge="1" parent="1" source="Ew38yq7X-rR1EeehxZCt-95" target="Ew38yq7X-rR1EeehxZCt-84">
          <mxGeometry relative="1" as="geometry" />
        </mxCell>
        <mxCell id="Ew38yq7X-rR1EeehxZCt-95" value="data" style="ellipse;whiteSpace=wrap;html=1;align=center;" vertex="1" parent="1">
          <mxGeometry x="724" y="168" width="56" height="27" as="geometry" />
        </mxCell>
        <mxCell id="Ew38yq7X-rR1EeehxZCt-96" style="edgeStyle=none;rounded=0;orthogonalLoop=1;jettySize=auto;html=1;entryX=1;entryY=0.5;entryDx=0;entryDy=0;strokeColor=default;align=center;verticalAlign=middle;fontFamily=Helvetica;fontSize=11;fontColor=default;labelBackgroundColor=default;endArrow=none;endFill=0;" edge="1" parent="1" target="Ew38yq7X-rR1EeehxZCt-17">
          <mxGeometry relative="1" as="geometry">
            <mxPoint x="1268.2686567164178" y="591.1343283582091" as="sourcePoint" />
          </mxGeometry>
        </mxCell>
        <mxCell id="Ew38yq7X-rR1EeehxZCt-97" value="tem" style="shape=rhombus;perimeter=rhombusPerimeter;whiteSpace=wrap;html=1;align=center;fontFamily=Helvetica;fontSize=11;fontColor=default;labelBackgroundColor=default;" vertex="1" parent="1">
          <mxGeometry x="1241" y="549" width="120" height="60" as="geometry" />
        </mxCell>
        <mxCell id="Ew38yq7X-rR1EeehxZCt-98" style="edgeStyle=orthogonalEdgeStyle;rounded=0;orthogonalLoop=1;jettySize=auto;html=1;strokeColor=default;align=center;verticalAlign=middle;fontFamily=Helvetica;fontSize=11;fontColor=default;labelBackgroundColor=default;endArrow=none;endFill=0;" edge="1" parent="1">
          <mxGeometry relative="1" as="geometry">
            <mxPoint x="1302" y="548" as="sourcePoint" />
            <mxPoint x="410" y="271" as="targetPoint" />
            <Array as="points">
              <mxPoint x="1302" y="99" />
              <mxPoint x="410" y="99" />
            </Array>
          </mxGeometry>
        </mxCell>
        <mxCell id="Ew38yq7X-rR1EeehxZCt-99" value="N" style="text;html=1;align=center;verticalAlign=middle;resizable=0;points=[];autosize=1;strokeColor=none;fillColor=none;fontFamily=Helvetica;fontSize=11;fontColor=default;labelBackgroundColor=default;" vertex="1" parent="1">
          <mxGeometry x="1275" y="528" width="26" height="25" as="geometry" />
        </mxCell>
        <mxCell id="Ew38yq7X-rR1EeehxZCt-100" value="N" style="text;html=1;align=center;verticalAlign=middle;resizable=0;points=[];autosize=1;strokeColor=none;fillColor=none;fontFamily=Helvetica;fontSize=11;fontColor=default;labelBackgroundColor=default;" vertex="1" parent="1">
          <mxGeometry x="1227" y="580" width="26" height="25" as="geometry" />
        </mxCell>
        <mxCell id="Ew38yq7X-rR1EeehxZCt-101" style="edgeStyle=none;rounded=0;orthogonalLoop=1;jettySize=auto;html=1;entryX=0;entryY=1;entryDx=0;entryDy=0;strokeColor=default;align=center;verticalAlign=middle;fontFamily=Helvetica;fontSize=11;fontColor=default;labelBackgroundColor=default;endArrow=none;endFill=0;" edge="1" parent="1" source="Ew38yq7X-rR1EeehxZCt-102" target="Ew38yq7X-rR1EeehxZCt-17">
          <mxGeometry relative="1" as="geometry" />
        </mxCell>
        <mxCell id="Ew38yq7X-rR1EeehxZCt-102" value="ID" style="ellipse;whiteSpace=wrap;html=1;align=center;fontStyle=4;" vertex="1" parent="1">
          <mxGeometry x="899" y="712" width="48" height="22.5" as="geometry" />
        </mxCell>
        <mxCell id="Ew38yq7X-rR1EeehxZCt-103" style="edgeStyle=none;rounded=0;orthogonalLoop=1;jettySize=auto;html=1;entryX=1;entryY=1;entryDx=0;entryDy=0;strokeColor=default;align=center;verticalAlign=middle;fontFamily=Helvetica;fontSize=11;fontColor=default;labelBackgroundColor=default;endArrow=none;endFill=0;" edge="1" parent="1" source="Ew38yq7X-rR1EeehxZCt-104" target="Ew38yq7X-rR1EeehxZCt-17">
          <mxGeometry relative="1" as="geometry" />
        </mxCell>
        <mxCell id="Ew38yq7X-rR1EeehxZCt-104" value="quantidade" style="ellipse;whiteSpace=wrap;html=1;align=center;" vertex="1" parent="1">
          <mxGeometry x="1076" y="712" width="64" height="31" as="geometry" />
        </mxCell>
        <mxCell id="Ew38yq7X-rR1EeehxZCt-105" value="data" style="ellipse;whiteSpace=wrap;html=1;align=center;" vertex="1" parent="1">
          <mxGeometry x="1016" y="709" width="60" height="16" as="geometry" />
        </mxCell>
        <mxCell id="Ew38yq7X-rR1EeehxZCt-106" style="edgeStyle=none;rounded=0;orthogonalLoop=1;jettySize=auto;html=1;entryX=0.68;entryY=0.975;entryDx=0;entryDy=0;entryPerimeter=0;strokeColor=default;align=center;verticalAlign=middle;fontFamily=Helvetica;fontSize=11;fontColor=default;labelBackgroundColor=default;endArrow=none;endFill=0;" edge="1" parent="1" source="Ew38yq7X-rR1EeehxZCt-105" target="Ew38yq7X-rR1EeehxZCt-17">
          <mxGeometry relative="1" as="geometry" />
        </mxCell>
        <mxCell id="Ew38yq7X-rR1EeehxZCt-107" style="edgeStyle=none;rounded=0;orthogonalLoop=1;jettySize=auto;html=1;strokeColor=default;align=center;verticalAlign=middle;fontFamily=Helvetica;fontSize=11;fontColor=default;labelBackgroundColor=default;endArrow=none;endFill=0;" edge="1" parent="1" source="Ew38yq7X-rR1EeehxZCt-108">
          <mxGeometry relative="1" as="geometry">
            <mxPoint x="969.3333740234375" y="368.66668701171875" as="targetPoint" />
          </mxGeometry>
        </mxCell>
        <mxCell id="Ew38yq7X-rR1EeehxZCt-108" value="solicita" style="shape=rhombus;perimeter=rhombusPerimeter;whiteSpace=wrap;html=1;align=center;" vertex="1" parent="1">
          <mxGeometry x="692" y="313" width="120" height="60" as="geometry" />
        </mxCell>
        <mxCell id="Ew38yq7X-rR1EeehxZCt-109" value="N" style="text;html=1;align=center;verticalAlign=middle;resizable=0;points=[];autosize=1;strokeColor=none;fillColor=none;fontFamily=Helvetica;fontSize=11;fontColor=default;labelBackgroundColor=default;" vertex="1" parent="1">
          <mxGeometry x="806" y="324" width="26" height="25" as="geometry" />
        </mxCell>
        <mxCell id="Ew38yq7X-rR1EeehxZCt-110" value="N" style="text;html=1;align=center;verticalAlign=middle;resizable=0;points=[];autosize=1;strokeColor=none;fillColor=none;fontFamily=Helvetica;fontSize=11;fontColor=default;labelBackgroundColor=default;" vertex="1" parent="1">
          <mxGeometry x="692" y="313" width="26" height="25" as="geometry" />
        </mxCell>
        <mxCell id="Ew38yq7X-rR1EeehxZCt-111" style="edgeStyle=none;rounded=0;orthogonalLoop=1;jettySize=auto;html=1;strokeColor=default;align=center;verticalAlign=middle;fontFamily=Helvetica;fontSize=11;fontColor=default;labelBackgroundColor=default;endArrow=none;endFill=0;" edge="1" parent="1" source="Ew38yq7X-rR1EeehxZCt-11">
          <mxGeometry relative="1" as="geometry">
            <mxPoint x="701" y="336" as="targetPoint" />
          </mxGeometry>
        </mxCell>
        <mxCell id="Ew38yq7X-rR1EeehxZCt-112" style="edgeStyle=none;rounded=0;orthogonalLoop=1;jettySize=auto;html=1;strokeColor=default;align=center;verticalAlign=middle;fontFamily=Helvetica;fontSize=11;fontColor=default;labelBackgroundColor=default;endArrow=none;endFill=0;" edge="1" parent="1" source="Ew38yq7X-rR1EeehxZCt-113" target="Ew38yq7X-rR1EeehxZCt-108">
          <mxGeometry relative="1" as="geometry" />
        </mxCell>
        <mxCell id="Ew38yq7X-rR1EeehxZCt-113" value="ID" style="ellipse;whiteSpace=wrap;html=1;align=center;fontStyle=4;fontFamily=Helvetica;fontSize=11;fontColor=default;labelBackgroundColor=default;" vertex="1" parent="1">
          <mxGeometry x="787" y="291.5" width="42" height="24" as="geometry" />
        </mxCell>
        <mxCell id="Ew38yq7X-rR1EeehxZCt-114" style="edgeStyle=none;rounded=0;orthogonalLoop=1;jettySize=auto;html=1;entryX=0;entryY=1;entryDx=0;entryDy=0;strokeColor=default;align=center;verticalAlign=middle;fontFamily=Helvetica;fontSize=11;fontColor=default;labelBackgroundColor=default;endArrow=none;endFill=0;" edge="1" parent="1" source="Ew38yq7X-rR1EeehxZCt-115" target="Ew38yq7X-rR1EeehxZCt-18">
          <mxGeometry relative="1" as="geometry" />
        </mxCell>
        <mxCell id="Ew38yq7X-rR1EeehxZCt-115" value="nota_fiscal" style="ellipse;whiteSpace=wrap;html=1;align=center;" vertex="1" parent="1">
          <mxGeometry x="522.5" y="178.5" width="71.5" height="32.5" as="geometry" />
        </mxCell>
        <mxCell id="Ew38yq7X-rR1EeehxZCt-116" value="qtde" style="ellipse;whiteSpace=wrap;html=1;align=center;" vertex="1" parent="1">
          <mxGeometry x="635" y="206" width="57" height="22" as="geometry" />
        </mxCell>
        <mxCell id="Ew38yq7X-rR1EeehxZCt-117" style="edgeStyle=none;rounded=0;orthogonalLoop=1;jettySize=auto;html=1;entryX=0.83;entryY=0.967;entryDx=0;entryDy=0;entryPerimeter=0;strokeColor=default;align=center;verticalAlign=middle;fontFamily=Helvetica;fontSize=11;fontColor=default;labelBackgroundColor=default;endArrow=none;endFill=0;" edge="1" parent="1" source="Ew38yq7X-rR1EeehxZCt-116" target="Ew38yq7X-rR1EeehxZCt-18">
          <mxGeometry relative="1" as="geometry" />
        </mxCell>
        <mxCell id="Ew38yq7X-rR1EeehxZCt-118" value="sub" style="ellipse;whiteSpace=wrap;html=1;align=center;" vertex="1" parent="1">
          <mxGeometry x="308" y="326.5" width="71" height="40" as="geometry" />
        </mxCell>
        <mxCell id="Ew38yq7X-rR1EeehxZCt-119" style="edgeStyle=none;rounded=0;orthogonalLoop=1;jettySize=auto;html=1;entryX=0.317;entryY=0.233;entryDx=0;entryDy=0;entryPerimeter=0;strokeColor=default;align=center;verticalAlign=middle;fontFamily=Helvetica;fontSize=11;fontColor=default;labelBackgroundColor=default;endArrow=none;endFill=0;" edge="1" parent="1" source="Ew38yq7X-rR1EeehxZCt-118" target="Ew38yq7X-rR1EeehxZCt-7">
          <mxGeometry relative="1" as="geometry" />
        </mxCell>
        <mxCell id="Ew38yq7X-rR1EeehxZCt-120" style="edgeStyle=none;rounded=0;orthogonalLoop=1;jettySize=auto;html=1;strokeColor=default;align=center;verticalAlign=middle;fontFamily=Helvetica;fontSize=11;fontColor=default;labelBackgroundColor=default;endArrow=none;endFill=0;" edge="1" parent="1" source="Ew38yq7X-rR1EeehxZCt-121" target="Ew38yq7X-rR1EeehxZCt-7">
          <mxGeometry relative="1" as="geometry" />
        </mxCell>
        <mxCell id="Ew38yq7X-rR1EeehxZCt-121" value="qtde" style="ellipse;whiteSpace=wrap;html=1;align=center;" vertex="1" parent="1">
          <mxGeometry x="411" y="334" width="71" height="40" as="geometry" />
        </mxCell>
        <mxCell id="Ew38yq7X-rR1EeehxZCt-122" value="data" style="ellipse;whiteSpace=wrap;html=1;align=center;" vertex="1" parent="1">
          <mxGeometry x="451.5" y="430" width="71" height="40" as="geometry" />
        </mxCell>
        <mxCell id="Ew38yq7X-rR1EeehxZCt-123" style="edgeStyle=none;rounded=0;orthogonalLoop=1;jettySize=auto;html=1;entryX=0.7;entryY=0.85;entryDx=0;entryDy=0;entryPerimeter=0;strokeColor=default;align=center;verticalAlign=middle;fontFamily=Helvetica;fontSize=11;fontColor=default;labelBackgroundColor=default;endArrow=none;endFill=0;" edge="1" parent="1" source="Ew38yq7X-rR1EeehxZCt-122" target="Ew38yq7X-rR1EeehxZCt-7">
          <mxGeometry relative="1" as="geometry" />
        </mxCell>
        <mxCell id="Ew38yq7X-rR1EeehxZCt-124" style="edgeStyle=none;rounded=0;orthogonalLoop=1;jettySize=auto;html=1;strokeColor=default;align=center;verticalAlign=middle;fontFamily=Helvetica;fontSize=11;fontColor=default;labelBackgroundColor=default;endArrow=none;endFill=0;" edge="1" parent="1" source="Ew38yq7X-rR1EeehxZCt-125" target="Ew38yq7X-rR1EeehxZCt-108">
          <mxGeometry relative="1" as="geometry" />
        </mxCell>
        <mxCell id="Ew38yq7X-rR1EeehxZCt-125" value="qtde" style="ellipse;whiteSpace=wrap;html=1;align=center;" vertex="1" parent="1">
          <mxGeometry x="637" y="373" width="71" height="40" as="geometry" />
        </mxCell>
        <mxCell id="Ew38yq7X-rR1EeehxZCt-126" style="edgeStyle=none;rounded=0;orthogonalLoop=1;jettySize=auto;html=1;strokeColor=default;align=center;verticalAlign=middle;fontFamily=Helvetica;fontSize=11;fontColor=default;labelBackgroundColor=default;endArrow=none;endFill=0;" edge="1" parent="1" source="Ew38yq7X-rR1EeehxZCt-127" target="Ew38yq7X-rR1EeehxZCt-108">
          <mxGeometry relative="1" as="geometry" />
        </mxCell>
        <mxCell id="Ew38yq7X-rR1EeehxZCt-127" value="data" style="ellipse;whiteSpace=wrap;html=1;align=center;" vertex="1" parent="1">
          <mxGeometry x="721" y="393" width="71" height="40" as="geometry" />
        </mxCell>
        <mxCell id="Ew38yq7X-rR1EeehxZCt-130" value="Associative&#xa;Entity" style="shape=associativeEntity;whiteSpace=wrap;html=1;align=center;" vertex="1" parent="1">
          <mxGeometry x="332" y="367" width="140" height="60" as="geometry" />
        </mxCell>
        <mxCell id="Ew38yq7X-rR1EeehxZCt-131" value="sub" style="whiteSpace=wrap;html=1;align=center;" vertex="1" parent="1">
          <mxGeometry x="608" y="433" width="100" height="40" as="geometry" />
        </mxCell>
        <mxCell id="Ew38yq7X-rR1EeehxZCt-132" style="edgeStyle=orthogonalEdgeStyle;rounded=0;orthogonalLoop=1;jettySize=auto;html=1;entryX=0.944;entryY=0.601;entryDx=0;entryDy=0;entryPerimeter=0;" edge="1" parent="1" source="Ew38yq7X-rR1EeehxZCt-131" target="Ew38yq7X-rR1EeehxZCt-130">
          <mxGeometry relative="1" as="geometry" />
        </mxCell>
      </root>
    </mxGraphModel>
  </diagram>
</mxfile>
